<?xml version="1.0" encoding="UTF-8" standalone="no"?>
<!-- Created with Inkscape (http://www.inkscape.org/) -->

<svg
   xmlns:dc="http://purl.org/dc/elements/1.1/"
   xmlns:cc="http://creativecommons.org/ns#"
   xmlns:rdf="http://www.w3.org/1999/02/22-rdf-syntax-ns#"
   xmlns:svg="http://www.w3.org/2000/svg"
   xmlns="http://www.w3.org/2000/svg"
   xmlns:sodipodi="http://sodipodi.sourceforge.net/DTD/sodipodi-0.dtd"
   xmlns:inkscape="http://www.inkscape.org/namespaces/inkscape"
   width="32"
   height="32"
   viewBox="0 0 8.4666665 8.4666669"
   version="1.1"
   id="svg8"
   inkscape:version="0.92.4 (5da689c313, 2019-01-14)"
   sodipodi:docname="background-full.svg">
  <defs
     id="defs2" />
  <sodipodi:namedview
     id="base"
     pagecolor="#e8e9f3"
     bordercolor="#666666"
     borderopacity="1.0"
     inkscape:pageopacity="1"
     inkscape:pageshadow="2"
     inkscape:zoom="4"
     inkscape:cx="9.1974628"
     inkscape:cy="-13.166984"
     inkscape:document-units="mm"
     inkscape:current-layer="layer1"
     showgrid="false"
     units="px"
     inkscape:window-width="1366"
     inkscape:window-height="708"
     inkscape:window-x="0"
     inkscape:window-y="0"
     inkscape:window-maximized="1" />
  <metadata
     id="metadata5">
    <rdf:RDF>
      <cc:Work
         rdf:about="">
        <dc:format>image/svg+xml</dc:format>
        <dc:type
           rdf:resource="http://purl.org/dc/dcmitype/StillImage" />
        <dc:title></dc:title>
      </cc:Work>
    </rdf:RDF>
  </metadata>
  <g
     inkscape:label="Layer 1"
     inkscape:groupmode="layer"
     id="layer1"
     transform="translate(0,-288.53332)">
    <g
       style="clip-rule:evenodd;fill-rule:evenodd"
       id="g964-3-6-9"
       transform="matrix(0.36264357,0,0,0.35274926,4.4768444,287.28031)">
      <path
         d="m -11.937529,18.454796 c 4.0749997,-1.121 9.5099997,0.505 10.99999974,6 1.98499996,-5.939 7.95299996,-7.051 11.00000026,-6 -2.4670003,1.524 -3.4970003,9 -11.00000026,9 -7.50300004,0 -8.48700004,-7.471 -10.99999974,-9 z"
         id="path991-0-2"
         inkscape:connector-curvature="0"
         style="fill:#baf2bb;fill-opacity:1" />
      <path
         id="path953-6-6-2"
         d="m -1.074029,9.3189078 c 1.38,0 2.5,1.1199992 2.5,2.5000002 0,1.379999 -1.12,2.5 -2.5,2.5 -1.38,0 -2.5,-1.120001 -2.5,-2.5 0,-1.380001 1.12,-2.5000002 2.5,-2.5000002 z m -2.797,-2.581001 c 0.008,-1.612 1.319,-2.9189989 2.933,-2.9189989 1.615,0 2.926,1.3069989 2.934,2.9189989 1.4,-0.799 3.187,-0.317 3.995,1.081001 0.807,1.397999 0.331,3.1869992 -1.062,4.0000002 1.393,0.812999 1.869,2.601999 1.062,4 -0.808,1.397999 -2.595,1.879999 -3.995,1.080999 -0.008,1.612 -1.319,2.919001 -2.934,2.919001 -1.614,0 -2.925,-1.307001 -2.933,-2.919001 -1.4,0.799 -3.188,0.317 -3.995,-1.080999 -0.807,-1.398001 -0.331,-3.187001 1.062,-4 -1.393,-0.813001 -1.869,-2.6020012 -1.062,-4.0000002 0.807,-1.398001 2.595,-1.880001 3.995,-1.081001 z"
         style="fill:#f2bac9;fill-opacity:1"
         inkscape:connector-curvature="0" />
    </g>
  </g>
</svg>
