<?xml version="1.0" encoding="UTF-8" standalone="no"?>
<!-- Created with Inkscape (http://www.inkscape.org/) -->

<svg
   xmlns:dc="http://purl.org/dc/elements/1.1/"
   xmlns:cc="http://creativecommons.org/ns#"
   xmlns:rdf="http://www.w3.org/1999/02/22-rdf-syntax-ns#"
   xmlns:svg="http://www.w3.org/2000/svg"
   xmlns="http://www.w3.org/2000/svg"
   xmlns:sodipodi="http://sodipodi.sourceforge.net/DTD/sodipodi-0.dtd"
   xmlns:inkscape="http://www.inkscape.org/namespaces/inkscape"
   width="32"
   height="32"
   viewBox="0 0 8.4666665 8.4666669"
   version="1.1"
   id="svg8"
   inkscape:version="0.92.4 (5da689c313, 2019-01-14)"
   sodipodi:docname="profile.svg">
  <defs
     id="defs2" />
  <sodipodi:namedview
     id="base"
     pagecolor="#ffffff"
     bordercolor="#666666"
     borderopacity="1.0"
     inkscape:pageopacity="0.0"
     inkscape:pageshadow="2"
     inkscape:zoom="5.6568543"
     inkscape:cx="9.3705807"
     inkscape:cy="15.15275"
     inkscape:document-units="mm"
     inkscape:current-layer="layer1"
     showgrid="false"
     units="px"
     inkscape:window-width="1366"
     inkscape:window-height="708"
     inkscape:window-x="0"
     inkscape:window-y="0"
     inkscape:window-maximized="1" />
  <metadata
     id="metadata5">
    <rdf:RDF>
      <cc:Work
         rdf:about="">
        <dc:format>image/svg+xml</dc:format>
        <dc:type
           rdf:resource="http://purl.org/dc/dcmitype/StillImage" />
        <dc:title></dc:title>
      </cc:Work>
    </rdf:RDF>
  </metadata>
  <g
     inkscape:label="Layer 1"
     inkscape:groupmode="layer"
     id="layer1"
     transform="translate(0,-288.53332)">
    <rect
       style="fill:#e8e9f3;stroke-width:0.26406115;fill-opacity:1"
       id="rect10-3"
       width="8.4686623"
       height="3.9532697"
       x="-0.0010441542"
       y="293.05774"
       ry="0" />
    <rect
       style="fill:#a9def9;fill-opacity:1;stroke-width:0.30791572"
       id="rect10"
       width="8.4686623"
       height="5.3754048"
       x="-0.0010440233"
       y="288.53397"
       ry="0" />
    <ellipse
       style="fill:#df928e;fill-opacity:0.94117647;stroke-width:0.15736403"
       id="path4535"
       cx="1.4939556"
       cy="293.80618"
       rx="0.79375005"
       ry="0.85989588" />
    <path
       inkscape:connector-curvature="0"
       style="clip-rule:evenodd;fill:#f2bac9;fill-opacity:1;fill-rule:evenodd;stroke-width:0.16815542"
       d="m 4.3039245,290.14875 c 0.2320545,0 0.4203883,0.18833 0.4203883,0.42039 0,0.23205 -0.1883338,0.42038 -0.4203883,0.42038 -0.2320545,0 -0.420389,-0.18833 -0.420389,-0.42038 0,-0.23206 0.1883345,-0.42039 0.420389,-0.42039 z m -0.470331,-0.43401 c 0.00133,-0.27107 0.2217967,-0.49085 0.4931999,-0.49085 0.2715709,0 0.4920229,0.21978 0.4933677,0.49085 0.2354178,-0.13436 0.5359119,-0.0533 0.6717813,0.18177 0.1357016,0.23508 0.055661,0.53591 -0.1785814,0.67263 0.2342408,0.1367 0.314283,0.43753 0.1785814,0.67262 -0.1358694,0.23508 -0.4363635,0.31613 -0.6717813,0.18177 -0.00133,0.27107 -0.2217968,0.49085 -0.4933677,0.49085 -0.2714032,0 -0.4918545,-0.21978 -0.4931999,-0.49085 -0.2354178,0.13436 -0.5360797,0.0533 -0.6717807,-0.18177 -0.1357016,-0.23509 -0.055661,-0.53592 0.1785808,-0.67262 -0.2342408,-0.13672 -0.3142824,-0.43755 -0.1785808,-0.67263 0.135701,-0.23507 0.4363629,-0.31613 0.6717807,-0.18177 z"
       id="path953-6-0" />
    <path
       inkscape:connector-curvature="0"
       style="clip-rule:evenodd;fill:#baf2bb;fill-opacity:1;fill-rule:evenodd;stroke-width:0.16815542"
       d="m 2.4771677,291.62554 c 0.6852333,-0.1885 1.5991584,0.0849 1.8497099,1.00893 0.3337886,-0.99867 1.3373399,-1.18566 1.8497099,-1.00893 -0.41484,0.25627 -0.5880396,1.5134 -1.8497099,1.5134 -1.2616703,0 -1.4271353,-1.25629 -1.8497099,-1.5134 z"
       id="path991-6" />
  </g>
</svg>
